<svg width="180" height="101" viewBox="0 0 180 101" fill="none" xmlns="http://www.w3.org/2000/svg">
<path fill-rule="evenodd" clip-rule="evenodd" d="M90.5017 8.41663C91.4314 8.41663 92.185 9.17029 92.185 10.1V11.7833C92.185 12.713 91.4314 13.4666 90.5017 13.4666C89.572 13.4666 88.8184 12.713 88.8184 11.7833V10.1C88.8184 9.17029 89.572 8.41663 90.5017 8.41663Z" fill="#EC8620"/>
<path fill-rule="evenodd" clip-rule="evenodd" d="M103.473 12.2761C104.13 12.9335 104.13 13.9993 103.473 14.6567L101.79 16.34C101.132 16.9974 100.066 16.9974 99.409 16.34C98.7517 15.6827 98.7517 14.6168 99.409 13.9594L101.092 12.2761C101.75 11.6187 102.816 11.6187 103.473 12.2761Z" fill="#EC8620"/>
<path fill-rule="evenodd" clip-rule="evenodd" d="M102.279 25.2501C102.279 24.3204 103.033 23.5668 103.963 23.5668H105.646C106.576 23.5668 107.329 24.3204 107.329 25.2501C107.329 26.1798 106.576 26.9334 105.646 26.9334H103.963C103.033 26.9334 102.279 26.1798 102.279 25.2501Z" fill="#EC8620"/>
<path fill-rule="evenodd" clip-rule="evenodd" d="M73.666 25.2501C73.666 24.3204 74.4197 23.5668 75.3493 23.5668H77.0327C77.9624 23.5668 78.716 24.3204 78.716 25.2501C78.716 26.1798 77.9624 26.9334 77.0327 26.9334H75.3493C74.4197 26.9334 73.666 26.1798 73.666 25.2501Z" fill="#EC8620"/>
<path fill-rule="evenodd" clip-rule="evenodd" d="M77.5223 12.2761C78.1797 11.6187 79.2455 11.6187 79.9029 12.2761L81.5863 13.9594C82.2436 14.6168 82.2436 15.6827 81.5863 16.34C80.9289 16.9974 79.8631 16.9974 79.2057 16.34L77.5223 14.6567C76.865 13.9993 76.865 12.9335 77.5223 12.2761Z" fill="#EC8620"/>
<path fill-rule="evenodd" clip-rule="evenodd" d="M90.5004 15.15C84.9223 15.15 80.4004 19.6719 80.4004 25.25C80.4004 27.9992 81.5011 30.4948 83.282 32.3143C83.7329 32.775 83.976 33.1982 84.051 33.5731L84.9416 38.0242C85.4139 40.3845 87.4864 42.0834 89.8935 42.0834H91.1072C93.5144 42.0834 95.5869 40.3845 96.0591 38.0242L96.9497 33.5731C97.0248 33.1982 97.2679 32.775 97.7187 32.3143C99.4997 30.4948 100.6 27.9992 100.6 25.25C100.6 19.6719 96.0785 15.15 90.5004 15.15ZM88.8171 31.9834C87.8874 31.9834 87.1337 32.737 87.1337 33.6667C87.1337 34.5964 87.8874 35.35 88.8171 35.35H92.1837C93.1134 35.35 93.8671 34.5964 93.8671 33.6667C93.8671 32.737 93.1134 31.9834 92.1837 31.9834H88.8171Z" fill="#EC8620"/>
<path d="M58.099 32.4661C63.4383 32.4661 67.7822 28.1221 67.7822 22.7828C67.7822 17.4435 63.4383 13.0996 58.099 13.0996C52.7597 13.0996 48.416 17.4435 48.416 22.7828C48.416 28.1221 52.7597 32.4661 58.099 32.4661Z" fill="#0E52DA"/>
<path d="M49.3691 46.3274V66.4373C49.3691 71.0561 53.1134 74.8004 57.7322 74.8004H68.6316V89.6534C68.6316 90.7848 69.5487 91.7022 70.6804 91.7022H80.3384C81.4698 91.7022 82.3872 90.7851 82.3872 89.6534V68.2285C82.3872 64.3295 79.2266 61.1691 75.3279 61.1691H66.8268V46.3274C66.8268 41.5068 62.9187 37.5988 58.0981 37.5988C53.2772 37.5985 49.3691 41.5065 49.3691 46.3274Z" fill="#0E52DA"/>
<path d="M122.908 32.4661C128.247 32.4661 132.591 28.1221 132.591 22.7828C132.591 17.4435 128.247 13.0996 122.908 13.0996C117.569 13.0996 113.225 17.4435 113.225 22.7828C113.225 28.1221 117.569 32.4661 122.908 32.4661Z" fill="#0E52DA"/>
<path d="M114.182 46.3274V61.1691H105.681C101.782 61.1691 98.6211 64.3298 98.6211 68.2285V89.6534C98.6211 90.7848 99.5382 91.7022 100.67 91.7022H110.328C111.459 91.7022 112.377 90.7851 112.377 89.6534V74.8004H123.276C127.895 74.8004 131.639 71.0561 131.639 66.4373V46.3274C131.639 41.5068 127.731 37.5988 122.911 37.5988C118.09 37.5985 114.182 41.5065 114.182 46.3274Z" fill="#0E52DA"/>
<path d="M104.991 51.4389C106.365 51.4389 107.479 50.325 107.479 48.9513C107.479 47.5773 106.365 46.4637 104.991 46.4637H76.0168C74.6428 46.4637 73.5293 47.5776 73.5293 48.9513C73.5293 50.3253 74.6431 51.4389 76.0168 51.4389H88.0162V90.0955C88.0162 91.4695 89.13 92.5831 90.5037 92.5831C91.8774 92.5831 92.9913 91.4693 92.9913 90.0955V51.4389H104.991Z" fill="#C2D6FF"/>
<path d="M32.0648 30.4922C32.0312 30.7968 31.812 31 31.4916 31C31.1881 31 30.9689 30.7968 30.9352 30.4583C30.3788 25.9388 30.1764 25.8203 25.5901 25.0755C25.2192 25.0247 25 24.8385 25 24.5C25 24.1953 25.2192 23.9922 25.5227 23.9245C30.1426 23.0612 30.3788 23.0781 30.9352 18.5417C30.9689 18.2201 31.1881 18 31.4916 18C31.812 18 32.0312 18.2201 32.0648 18.5247C32.655 23.1289 32.8236 23.2812 37.4773 23.9245C37.7809 23.9752 38 24.1953 38 24.5C38 24.8216 37.7809 25.0247 37.4773 25.0755L37.3858 25.0932C32.8216 25.9728 32.6679 26.0024 32.0648 30.4922Z" fill="#EC8620"/>
<path d="M147.065 62.4922C147.031 62.7968 146.812 63 146.492 63C146.188 63 145.969 62.7968 145.935 62.4583C145.379 57.9388 145.176 57.8203 140.59 57.0755C140.219 57.0247 140 56.8385 140 56.5C140 56.1953 140.219 55.9922 140.523 55.9245C145.143 55.0612 145.379 55.0781 145.935 50.5417C145.969 50.2201 146.188 50 146.492 50C146.812 50 147.031 50.2201 147.065 50.5247C147.655 55.1289 147.824 55.2812 152.477 55.9245C152.781 55.9752 153 56.1953 153 56.5C153 56.8216 152.781 57.0247 152.477 57.0755L152.386 57.0932C147.822 57.9728 147.668 58.0024 147.065 62.4922Z" fill="#EC8620"/>
</svg>
