<svg width="180" height="101" viewBox="0 0 180 101" fill="none" xmlns="http://www.w3.org/2000/svg">
<path d="M65.25 16.8333C65.25 14.5091 67.1341 12.625 69.4583 12.625H107.333L119.958 25.25V84.1667C119.958 86.4909 118.074 88.375 115.75 88.375H69.4583C67.1341 88.375 65.25 86.4909 65.25 84.1667V16.8333Z" fill="#C2D6FF"/>
<path d="M107.332 12.625L119.957 25.25H111.54C109.216 25.25 107.332 23.3659 107.332 21.0417V12.625Z" fill="#0E52DA"/>
<path d="M82.0827 33.6667C82.0827 36.996 81.0954 40.2506 79.2458 43.0188C77.3961 45.787 74.7671 47.9446 71.6912 49.2187C68.6153 50.4928 65.2307 50.8261 61.9653 50.1766C58.7 49.5271 55.7006 47.9239 53.3464 45.5697C50.9922 43.2155 49.389 40.2161 48.7395 36.9507C48.0899 33.6854 48.4233 30.3008 49.6974 27.2249C50.9715 24.149 53.129 21.52 55.8972 19.6703C58.6655 17.8206 61.92 16.8334 65.2493 16.8334L65.2493 30.3C64.5835 30.3 63.9326 30.4975 63.3789 30.8674C62.8253 31.2374 62.3938 31.7632 62.139 32.3783C61.8841 32.9935 61.8175 33.6704 61.9474 34.3235C62.0773 34.9766 62.3979 35.5765 62.8688 36.0473C63.3396 36.5181 63.9395 36.8388 64.5925 36.9687C65.2456 37.0986 65.9225 37.0319 66.5377 36.7771C67.1529 36.5223 67.6787 36.0908 68.0486 35.5371C68.4186 34.9835 68.616 34.3326 68.616 33.6667H82.0827Z" fill="#0E52DA"/>
<path d="M82.082 29.4584C82.082 27.8004 81.7555 26.1587 81.121 24.627C80.4865 23.0953 79.5566 21.7035 78.3843 20.5312C77.2119 19.3588 75.8201 18.4289 74.2884 17.7944C72.7567 17.1599 71.115 16.8334 69.457 16.8334L69.457 29.4584H82.082Z" fill="#EC8620"/>
<path fill-rule="evenodd" clip-rule="evenodd" d="M88.3945 54.7083C88.3945 53.5462 89.3366 52.6041 90.4987 52.6041H111.54C112.702 52.6041 113.645 53.5462 113.645 54.7083C113.645 55.8704 112.702 56.8125 111.54 56.8125H90.4987C89.3366 56.8125 88.3945 55.8704 88.3945 54.7083Z" fill="white"/>
<path fill-rule="evenodd" clip-rule="evenodd" d="M88.3945 46.2917C88.3945 45.1296 89.3366 44.1875 90.4987 44.1875H111.54C112.702 44.1875 113.645 45.1296 113.645 46.2917C113.645 47.4538 112.702 48.3958 111.54 48.3958H90.4987C89.3366 48.3958 88.3945 47.4538 88.3945 46.2917Z" fill="white"/>
<path fill-rule="evenodd" clip-rule="evenodd" d="M88.3945 37.875C88.3945 36.7129 89.3366 35.7709 90.4987 35.7709H111.54C112.702 35.7709 113.645 36.7129 113.645 37.875C113.645 39.0371 112.702 39.9792 111.54 39.9792H90.4987C89.3366 39.9792 88.3945 39.0371 88.3945 37.875Z" fill="white"/>
<path fill-rule="evenodd" clip-rule="evenodd" d="M88.3945 29.4583C88.3945 28.2962 89.3366 27.3541 90.4987 27.3541H103.124C104.286 27.3541 105.228 28.2962 105.228 29.4583C105.228 30.6204 104.286 31.5625 103.124 31.5625H90.4987C89.3366 31.5625 88.3945 30.6204 88.3945 29.4583Z" fill="#EC8620"/>
<path fill-rule="evenodd" clip-rule="evenodd" d="M129.753 57.3266C130.631 58.0877 130.726 59.4166 129.965 60.2948L111.729 81.3364C111.035 82.1373 109.854 82.297 108.972 81.7091L91.903 70.3299L74.8341 81.7091C73.8671 82.3538 72.5607 82.0925 71.9161 81.1255C71.2715 80.1586 71.5328 78.8522 72.4997 78.2076L90.7358 66.0502C91.4426 65.579 92.3634 65.579 93.0702 66.0502L109.763 77.179L126.785 57.5386C127.546 56.6604 128.875 56.5655 129.753 57.3266Z" fill="#0E52DA"/>
<path d="M132.88 52.1236C133.853 51.7417 134.842 52.6398 134.556 53.6449L131.308 65.0405C131.051 65.9409 129.938 66.2585 129.245 65.6292L121.463 58.5633C120.77 57.934 120.979 56.7955 121.85 56.4534L132.88 52.1236Z" fill="#0E52DA"/>
<path d="M133.065 24.4922C133.031 24.7968 132.812 25 132.492 25C132.188 25 131.969 24.7968 131.935 24.4583C131.379 19.9388 131.176 19.8203 126.59 19.0755C126.219 19.0247 126 18.8385 126 18.5C126 18.1953 126.219 17.9922 126.523 17.9245C131.143 17.0612 131.379 17.0781 131.935 12.5417C131.969 12.2201 132.188 12 132.492 12C132.812 12 133.031 12.2201 133.065 12.5247C133.655 17.1289 133.824 17.2812 138.477 17.9245C138.781 17.9752 139 18.1953 139 18.5C139 18.8216 138.781 19.0247 138.477 19.0755L138.386 19.0932C133.822 19.9728 133.668 20.0024 133.065 24.4922Z" fill="#EC8620"/>
<path d="M55.0648 93.4922C55.0312 93.7968 54.812 94 54.4916 94C54.1881 94 53.9689 93.7968 53.9352 93.4583C53.3788 88.9388 53.1764 88.8203 48.5901 88.0755C48.2192 88.0247 48 87.8385 48 87.5C48 87.1953 48.2192 86.9922 48.5227 86.9245C53.1426 86.0612 53.3788 86.0781 53.9352 81.5417C53.9689 81.2201 54.1881 81 54.4916 81C54.812 81 55.0312 81.2201 55.0648 81.5247C55.655 86.1289 55.8236 86.2812 60.4773 86.9245C60.7809 86.9752 61 87.1953 61 87.5C61 87.8216 60.7809 88.0247 60.4773 88.0755L60.3858 88.0932C55.8216 88.9728 55.6679 89.0024 55.0648 93.4922Z" fill="#EC8620"/>
<path d="M123.804 12.7266C123.786 12.8906 123.668 13 123.495 13C123.332 13 123.214 12.8906 123.196 12.7083C122.896 10.2747 122.787 10.2109 120.318 9.80991C120.118 9.78253 120 9.68227 120 9.5C120 9.33593 120.118 9.22657 120.281 9.19009C122.769 8.72526 122.896 8.73436 123.196 6.29167C123.214 6.11849 123.332 6 123.495 6C123.668 6 123.786 6.11849 123.804 6.28253C124.122 8.76169 124.213 8.84375 126.719 9.19009C126.882 9.21743 127 9.33593 127 9.5C127 9.67317 126.882 9.78253 126.719 9.80991L126.669 9.8194C124.212 10.2931 124.129 10.309 123.804 12.7266Z" fill="#EC8620"/>
</svg>
