<svg width="180" height="101" viewBox="0 0 180 101" fill="none" xmlns="http://www.w3.org/2000/svg">
<path fill-rule="evenodd" clip-rule="evenodd" d="M70.0476 10.5209C67.1691 10.5209 64.9375 12.7745 64.9375 15.4306V85.5695C64.9375 88.2256 67.1691 90.4792 70.0476 90.4792H106.119C108.998 90.4792 111.229 88.2256 111.229 85.5695V84.0628C100.596 83.0071 92.2917 74.0359 92.2917 63.125C92.2917 52.2142 100.596 43.243 111.229 42.1873V15.4306C111.229 12.7745 108.998 10.5209 106.119 10.5209H70.0476Z" fill="#C2D6FF"/>
<path fill-rule="evenodd" clip-rule="evenodd" d="M69.1465 71.5417C69.1465 70.3796 70.0886 69.4375 71.2507 69.4375H79.6673C80.8294 69.4375 81.7715 70.3796 81.7715 71.5417C81.7715 72.7038 80.8294 73.6458 79.6673 73.6458H71.2507C70.0886 73.6458 69.1465 72.7038 69.1465 71.5417Z" fill="white"/>
<path fill-rule="evenodd" clip-rule="evenodd" d="M69.1465 63.125C69.1465 61.9629 70.0886 61.0209 71.2507 61.0209H79.6673C80.8294 61.0209 81.7715 61.9629 81.7715 63.125C81.7715 64.2871 80.8294 65.2292 79.6673 65.2292H71.2507C70.0886 65.2292 69.1465 64.2871 69.1465 63.125Z" fill="white"/>
<path fill-rule="evenodd" clip-rule="evenodd" d="M69.1465 54.7084C69.1465 53.5463 70.0886 52.6042 71.2507 52.6042H88.084C89.2461 52.6042 90.1881 53.5463 90.1881 54.7084C90.1881 55.8705 89.2461 56.8126 88.084 56.8126H71.2507C70.0886 56.8126 69.1465 55.8705 69.1465 54.7084Z" fill="white"/>
<path fill-rule="evenodd" clip-rule="evenodd" d="M78.9512 15.4305C78.9512 14.2684 79.8932 13.3263 81.0553 13.3263H95.0831C96.2452 13.3263 97.1873 14.2684 97.1873 15.4305C97.1873 16.5926 96.2452 17.5346 95.0831 17.5346H81.0553C79.8932 17.5346 78.9512 16.5926 78.9512 15.4305Z" fill="#0E52DA"/>
<path fill-rule="evenodd" clip-rule="evenodd" d="M82.4043 85.5696C82.4043 84.4075 83.3464 83.4655 84.5085 83.4655H91.5224C92.6845 83.4655 93.6265 84.4075 93.6265 85.5696C93.6265 86.7317 92.6845 87.6738 91.5224 87.6738H84.5085C83.3464 87.6738 82.4043 86.7317 82.4043 85.5696Z" fill="#0E52DA"/>
<g clip-path="url(#clip0_604_1657)">
<path d="M96.8198 31.3234L93.121 34.515L94.2479 39.288C94.3101 39.5471 94.2941 39.8188 94.2019 40.0688C94.1097 40.3188 93.9455 40.5359 93.73 40.6927C93.5145 40.8494 93.2574 40.9388 92.9912 40.9494C92.7249 40.9601 92.4615 40.8917 92.2342 40.7527L88.0834 38.1981L83.9301 40.7527C83.7028 40.8909 83.4396 40.9587 83.1739 40.9476C82.9081 40.9365 82.6515 40.847 82.4365 40.6904C82.2214 40.5338 82.0575 40.3171 81.9654 40.0676C81.8733 39.818 81.8571 39.5468 81.9188 39.288L83.0498 34.515L79.3511 31.3234C79.1499 31.1496 79.0045 30.9203 78.9328 30.6643C78.8612 30.4083 78.8666 30.1369 78.9483 29.8839C79.03 29.6309 79.1845 29.4077 79.3923 29.2419C79.6002 29.0762 79.8523 28.9754 80.1171 28.9521L84.9666 28.5609L86.8373 24.0336C86.9386 23.7869 87.1109 23.5758 87.3324 23.4273C87.5539 23.2788 87.8146 23.1995 88.0813 23.1995C88.348 23.1995 88.6087 23.2788 88.8302 23.4273C89.0517 23.5758 89.224 23.7869 89.3253 24.0336L91.1952 28.5609L96.0447 28.9521C96.31 28.9745 96.5628 29.0748 96.7714 29.2403C96.9801 29.4058 97.1352 29.6292 97.2174 29.8824C97.2997 30.1357 97.3053 30.4076 97.2337 30.6641C97.1621 30.9206 97.0164 31.1502 96.8148 31.3242L96.8198 31.3234Z" fill="#EC8620"/>
</g>
<g clip-path="url(#clip1_604_1657)">
<path d="M108.055 35.9641L105.836 37.879L106.512 40.7428C106.549 40.8983 106.54 41.0613 106.484 41.2113C106.429 41.3614 106.331 41.4916 106.201 41.5856C106.072 41.6797 105.918 41.7333 105.758 41.7397C105.598 41.7461 105.44 41.705 105.304 41.6217L102.813 40.0889L100.321 41.6217C100.185 41.7046 100.027 41.7452 99.8676 41.7386C99.7081 41.732 99.5542 41.6783 99.4252 41.5843C99.2961 41.4903 99.1978 41.3603 99.1425 41.2106C99.0873 41.0608 99.0775 40.8981 99.1146 40.7428L99.7932 37.879L97.5739 35.9641C97.4532 35.8598 97.366 35.7222 97.323 35.5686C97.28 35.415 97.2832 35.2522 97.3323 35.1004C97.3813 34.9486 97.474 34.8146 97.5987 34.7152C97.7234 34.6158 97.8747 34.5553 98.0335 34.5413L100.943 34.3066L102.066 31.5902C102.126 31.4422 102.23 31.3155 102.363 31.2264C102.496 31.1373 102.652 31.0897 102.812 31.0897C102.972 31.0897 103.128 31.1373 103.261 31.2264C103.394 31.3155 103.498 31.4422 103.558 31.5902L104.68 34.3066L107.59 34.5413C107.749 34.5548 107.901 34.6149 108.026 34.7142C108.151 34.8135 108.244 34.9475 108.294 35.0995C108.343 35.2515 108.346 35.4146 108.304 35.5685C108.261 35.7224 108.173 35.8602 108.052 35.9646L108.055 35.9641Z" fill="#EC8620"/>
</g>
<g clip-path="url(#clip2_604_1657)">
<path d="M78.5961 35.9641L76.3769 37.879L77.053 40.7428C77.0903 40.8983 77.0807 41.0613 77.0254 41.2113C76.9701 41.3614 76.8716 41.4916 76.7423 41.5856C76.613 41.6797 76.4588 41.7333 76.299 41.7397C76.1393 41.7461 75.9812 41.705 75.8448 41.6217L73.3543 40.0889L70.8624 41.6217C70.726 41.7046 70.5681 41.7452 70.4086 41.7386C70.2491 41.732 70.0952 41.6783 69.9662 41.5843C69.8372 41.4903 69.7388 41.3603 69.6835 41.2106C69.6283 41.0608 69.6185 40.8981 69.6556 40.7428L70.3342 37.879L68.1149 35.9641C67.9943 35.8598 67.907 35.7222 67.864 35.5686C67.821 35.415 67.8243 35.2522 67.8733 35.1004C67.9223 34.9486 68.015 34.8146 68.1397 34.7152C68.2644 34.6158 68.4157 34.5553 68.5746 34.5413L71.4842 34.3066L72.6067 31.5902C72.6674 31.4422 72.7708 31.3155 72.9037 31.2264C73.0366 31.1373 73.1931 31.0897 73.3531 31.0897C73.5131 31.0897 73.6695 31.1373 73.8024 31.2264C73.9353 31.3155 74.0387 31.4422 74.0995 31.5902L75.2214 34.3066L78.1311 34.5413C78.2903 34.5548 78.442 34.6149 78.5672 34.7142C78.6923 34.8135 78.7854 34.9475 78.8348 35.0995C78.8841 35.2515 78.8875 35.4146 78.8445 35.5685C78.8016 35.7224 78.7141 35.8602 78.5932 35.9646L78.5961 35.9641Z" fill="#EC8620"/>
</g>
<path fill-rule="evenodd" clip-rule="evenodd" d="M64.9368 15.4306C64.9368 12.7745 67.1685 10.5208 70.047 10.5208H106.118C108.997 10.5208 111.229 12.7745 111.229 15.4306V42.1872C111.921 42.1185 112.623 42.0833 113.333 42.0833C114.043 42.0833 114.745 42.1185 115.437 42.1872V15.4306C115.437 10.3393 111.209 6.3125 106.118 6.3125H70.047C64.9568 6.3125 60.7285 10.3393 60.7285 15.4306V85.5694C60.7285 90.6607 64.9568 94.6875 70.047 94.6875H106.118C111.209 94.6875 115.437 90.6607 115.437 85.5694V84.0628C114.745 84.1315 114.043 84.1667 113.333 84.1667C112.623 84.1667 111.921 84.1315 111.229 84.0628V85.5694C111.229 88.2255 108.997 90.4792 106.118 90.4792H70.047C67.1685 90.4792 64.9368 88.2255 64.9368 85.5694V15.4306Z" fill="#0E52DA"/>
<path fill-rule="evenodd" clip-rule="evenodd" d="M113.333 75.75C120.306 75.75 125.958 70.0976 125.958 63.125C125.958 56.1524 120.306 50.5 113.333 50.5C106.361 50.5 100.708 56.1524 100.708 63.125C100.708 70.0976 106.361 75.75 113.333 75.75ZM113.333 79.9583C122.63 79.9583 130.167 72.4218 130.167 63.125C130.167 53.8282 122.63 46.2916 113.333 46.2916C104.037 46.2916 96.5 53.8282 96.5 63.125C96.5 72.4218 104.037 79.9583 113.333 79.9583Z" fill="#0E52DA"/>
<path fill-rule="evenodd" clip-rule="evenodd" d="M121.076 57.374C121.928 58.1642 121.978 59.4956 121.188 60.3476L112.405 69.8164C112.007 70.2456 111.448 70.4896 110.863 70.4896C110.277 70.4896 109.718 70.2456 109.32 69.8164L105.477 65.6738C104.687 64.8218 104.737 63.4904 105.589 62.7001C106.441 61.9099 107.773 61.9599 108.563 62.8119L110.863 65.2913L118.102 57.4858C118.893 56.6337 120.224 56.5837 121.076 57.374Z" fill="#EC8620"/>
<path fill-rule="evenodd" clip-rule="evenodd" d="M125.957 76.9827C126.779 76.161 128.111 76.161 128.933 76.9827L137.86 85.91C138.682 86.7317 138.682 88.064 137.86 88.8857C137.039 89.7074 135.706 89.7074 134.885 88.8857L125.957 79.9585C125.136 79.1368 125.136 77.8045 125.957 76.9827Z" fill="#0E52DA"/>
<path d="M131.065 24.4922C131.031 24.7968 130.812 25 130.492 25C130.188 25 129.969 24.7968 129.935 24.4583C129.379 19.9388 129.176 19.8203 124.59 19.0755C124.219 19.0247 124 18.8385 124 18.5C124 18.1953 124.219 17.9922 124.523 17.9245C129.143 17.0612 129.379 17.0781 129.935 12.5417C129.969 12.2201 130.188 12 130.492 12C130.812 12 131.031 12.2201 131.065 12.5247C131.655 17.1289 131.824 17.2812 136.477 17.9245C136.781 17.9752 137 18.1953 137 18.5C137 18.8216 136.781 19.0247 136.477 19.0755L136.386 19.0932C131.822 19.9728 131.668 20.0024 131.065 24.4922Z" fill="#EC8620"/>
<path d="M53.0648 93.4922C53.0312 93.7968 52.812 94 52.4916 94C52.1881 94 51.9689 93.7968 51.9352 93.4583C51.3788 88.9388 51.1764 88.8203 46.5901 88.0755C46.2192 88.0247 46 87.8385 46 87.5C46 87.1953 46.2192 86.9922 46.5227 86.9245C51.1426 86.0612 51.3788 86.0781 51.9352 81.5417C51.9689 81.2201 52.1881 81 52.4916 81C52.812 81 53.0312 81.2201 53.0648 81.5247C53.655 86.1289 53.8236 86.2812 58.4773 86.9245C58.7809 86.9752 59 87.1953 59 87.5C59 87.8216 58.7809 88.0247 58.4773 88.0755L58.3858 88.0932C53.8216 88.9728 53.6679 89.0024 53.0648 93.4922Z" fill="#EC8620"/>
<path d="M121.804 12.7266C121.786 12.8906 121.668 13 121.495 13C121.332 13 121.214 12.8906 121.196 12.7083C120.896 10.2747 120.787 10.2109 118.318 9.80991C118.118 9.78253 118 9.68227 118 9.5C118 9.33593 118.118 9.22657 118.281 9.19009C120.769 8.72526 120.896 8.73436 121.196 6.29167C121.214 6.11849 121.332 6 121.495 6C121.668 6 121.786 6.11849 121.804 6.28253C122.122 8.76169 122.213 8.84375 124.719 9.19009C124.882 9.21743 125 9.33593 125 9.5C125 9.67317 124.882 9.78253 124.719 9.80991L124.669 9.8194C122.212 10.2931 122.129 10.309 121.804 12.7266Z" fill="#EC8620"/>
<defs>
<clipPath id="clip0_604_1657">
<rect width="21.0417" height="21.0417" fill="white" transform="translate(77.5625 21.8834)"/>
</clipPath>
<clipPath id="clip1_604_1657">
<rect width="12.625" height="12.625" fill="white" transform="translate(96.5 30.3)"/>
</clipPath>
<clipPath id="clip2_604_1657">
<rect width="12.625" height="12.625" fill="white" transform="translate(67.041 30.3)"/>
</clipPath>
</defs>
</svg>
