<svg width="1440" height="1201" viewBox="0 0 1440 1201" fill="none" xmlns="http://www.w3.org/2000/svg">
<rect width="1440" height="1201" fill="url(#paint0_linear_301_914)"/>
<path d="M771.977 57.9777C739.124 42.1901 700.876 42.1901 668.023 57.9777L3.02483e-05 379L-280 850L1720 850L1440 379L771.977 57.9777Z" fill="url(#paint1_linear_301_914)"/>
<mask id="mask0_301_914" style="mask-type:alpha" maskUnits="userSpaceOnUse" x="-280" y="46" width="2000" height="805">
<path d="M668.457 58.879L0.705353 379.771L-278.242 849L1718.24 849L1439.3 379.77L771.543 58.879C738.964 43.223 701.036 43.223 668.457 58.879Z" fill="#F5F5F5" stroke="white" stroke-width="2"/>
</mask>
<g mask="url(#mask0_301_914)">
<ellipse cx="720" cy="345" rx="481" ry="273" fill="url(#paint2_radial_301_914)"/>
</g>
<path d="M772.008 369.012C739.138 353.204 700.862 353.204 667.992 369.012L3.02711e-05 690.261L-280 838.874L-280 1106L720 1106L1720 1106L1720 838.874L1440 690.261L772.008 369.012Z" fill="url(#paint3_linear_301_914)"/>
<mask id="mask1_301_914" style="mask-type:alpha" maskUnits="userSpaceOnUse" x="-280" y="357" width="2000" height="749">
<path d="M668.425 369.913L0.468902 691.145L0.43338 691.163L-279 839.475L-279 1105L720 1105L1719 1105L1719 839.475L1439.55 691.154L1439.53 691.145L771.575 369.913C738.979 354.237 701.022 354.237 668.425 369.913Z" fill="#F5F5F5" stroke="white" stroke-width="2"/>
</mask>
<g mask="url(#mask1_301_914)">
<ellipse cx="720" cy="753.5" rx="701" ry="406.5" fill="url(#paint4_radial_301_914)"/>
</g>
<g style="mix-blend-mode:color">
<rect width="1440" height="1201" fill="url(#paint5_linear_301_914)"/>
</g>
<defs>
<linearGradient id="paint0_linear_301_914" x1="720" y1="0" x2="720" y2="1201" gradientUnits="userSpaceOnUse">
<stop stop-color="white"/>
<stop offset="0.14" stop-color="#F7F7F7"/>
<stop offset="0.78" stop-color="#BFBFBF"/>
<stop offset="1" stop-color="#F7F7F7"/>
</linearGradient>
<linearGradient id="paint1_linear_301_914" x1="720" y1="33.0001" x2="720" y2="850" gradientUnits="userSpaceOnUse">
<stop offset="0.08" stop-color="#FAFAFA"/>
<stop offset="1" stop-color="#EBEBEB"/>
</linearGradient>
<radialGradient id="paint2_radial_301_914" cx="0" cy="0" r="1" gradientUnits="userSpaceOnUse" gradientTransform="translate(720 345) rotate(90) scale(273 481)">
<stop offset="0.355" stop-color="#FAFAFA"/>
<stop offset="1" stop-color="#FAFAFA" stop-opacity="0"/>
</radialGradient>
<linearGradient id="paint3_linear_301_914" x1="720" y1="1006" x2="720" y2="344" gradientUnits="userSpaceOnUse">
<stop stop-color="#BFBFBF" stop-opacity="0"/>
<stop offset="0.2" stop-color="#BFBFBF"/>
<stop offset="0.56" stop-color="#DBDBDB"/>
<stop offset="1" stop-color="#F7F7F7"/>
</linearGradient>
<radialGradient id="paint4_radial_301_914" cx="0" cy="0" r="1" gradientUnits="userSpaceOnUse" gradientTransform="translate(720 753.5) rotate(90) scale(406.5 701)">
<stop stop-color="#EBEBEB"/>
<stop offset="1" stop-color="#EBEBEB" stop-opacity="0"/>
</radialGradient>
<linearGradient id="paint5_linear_301_914" x1="720" y1="-303.5" x2="720" y2="1201" gradientUnits="userSpaceOnUse">
<stop stop-color="white"/>
<stop offset="0.2" stop-color="#EC8620"/>
<stop offset="0.6" stop-color="#E23653"/>
<stop offset="1" stop-color="#0E52DA"/>
</linearGradient>
</defs>
</svg>
